# xmcd CD database file
#
# Track frame offsets:
#	150
#	18000
#	35250
#	56262
#	76147
#	98100
#	111000
#	120172
#	137025
#	155197
#	183000
#	199447
#	221647
#	232087
#	254410
#
# Disc length: 3468 seconds
#
# Revision: 3
# Processed by: cddbd v1.5.2PL0 Copyright (c) Steve Scherf et al.
# Submitted via: CDex 1.51
#
DISCID=c10d8a0f
DTITLE=Dave Goodman - Roadbook Rhymes
DYEAR=2000
DGENRE=Folk Pop
TTITLE0=Can You Feel It?
TTITLE1=Adeleine
TTITLE2=Hypnotized
TTITLE3=Don't Come Back Here No More
TTITLE4=Santa Fe
TTITLE5=The Rise
TTITLE6=Thunderheads
TTITLE7=Baby Put Me Down
TTITLE8=Fallen Hero
TTITLE9=Find A Way
TTITLE10=Only In My Arms
TTITLE11=Prisonniers De L'Inutile
TTITLE12=Dirty Water Rag
TTITLE13=One More Hand
TTITLE14=Stinson Sunset
EXTD=YEAR: 2000
EXTT0=
EXTT1=
EXTT2=
EXTT3=
EXTT4=
EXTT5=
EXTT6=
EXTT7=
EXTT8=
EXTT9=
EXTT10=
EXTT11=
EXTT12=
EXTT13=
EXTT14=
PLAYORDER=
